<svg xmlns="http://www.w3.org/2000/svg" width="1024" height="1024" viewBox="0 0 1024 1024">
  <defs>
    <linearGradient id="bg" x1="0" y1="0" x2="1" y2="1">
      <stop offset="0%" stop-color="#0c2f86"/>
      <stop offset="60%" stop-color="#1847b2"/>
      <stop offset="100%" stop-color="#2b62d4"/>
    </linearGradient>
    <linearGradient id="gold" x1="0" y1="0" x2="1" y2="1">
      <stop offset="0%" stop-color="#f8e7b2"/>
      <stop offset="100%" stop-color="#ddb45b"/>
    </linearGradient>
    <filter id="shadow" x="-20%" y="-20%" width="140%" height="140%">
      <feDropShadow dx="0" dy="18" stdDeviation="18" flood-color="#07173e" flood-opacity=".28"/>
    </filter>
  </defs>
  <rect width="1024" height="1024" fill="url(#bg)"/>
  <rect x="26" y="26" width="972" height="972" rx="110" fill="none" stroke="#f4eadf" stroke-opacity=".45" stroke-width="4"/>
  <rect x="72" y="72" width="880" height="880" rx="92" fill="none" stroke="#d7bf95" stroke-opacity=".5" stroke-width="2"/>
  <g filter="url(#shadow)">
    <rect x="208" y="154" width="184" height="248" rx="34" fill="#f7f2ea"/>
    <rect x="420" y="154" width="184" height="248" rx="34" fill="#f3d683"/>
    <rect x="632" y="154" width="184" height="248" rx="34" fill="#8fe2ef"/>
    <circle cx="300" cy="214" r="18" fill="#1847b2"/>
    <circle cx="512" cy="214" r="18" fill="#1847b2"/>
    <circle cx="724" cy="214" r="18" fill="#1847b2"/>
    <rect x="258" y="270" width="84" height="14" rx="7" fill="#1847b2" fill-opacity=".18"/>
    <rect x="470" y="270" width="84" height="14" rx="7" fill="#1847b2" fill-opacity=".18"/>
    <rect x="682" y="270" width="84" height="14" rx="7" fill="#1847b2" fill-opacity=".18"/>
  </g>
  <line x1="210" y1="486" x2="814" y2="486" stroke="url(#gold)" stroke-width="4"/>
  <text x="512" y="646" text-anchor="middle" font-family="Georgia, serif" font-size="134" letter-spacing="3" fill="#f7f2ea">PULL-TAB</text>
  <text x="512" y="812" text-anchor="middle" font-family="Georgia, serif" font-size="178" letter-spacing="4" fill="#f7f2ea">VALET</text>
</svg>
